# xmcd
#
# Track frame offsets:
#	150
#	15925
#	29300
#	47425
#	61100
#	74050
#	91325
#	105087
#	122150
#	141925
#	156800
#	170737
#	188975
#	203875
#	218850
#
# Disc length: 3097 seconds
#
# Revision: 1
# Processed by: cddbd v1.5.2PL0 Copyright (c) Steve Scherf et al.
# Submitted via: EasyCDDAExtractor 15.2.5.1
#
DISCID=cc0c170f
DTITLE=蔡琴II - 好歌伴一生，老歌憶童年
DYEAR=1992
DGENRE=Pop
TTITLE0=抉擇
TTITLE1=出塞曲
TTITLE2=恰似你温柔
TTITLE3=被遺忙的時光
TTITLE4=想你的時候
TTITLE5=你的眼神
TTITLE6=再愛我一次
TTITLE7=我的思念
TTITLE8=情是什麼
TTITLE9=菜根譚
TTITLE10=送別
TTITLE11=飄零的落花
TTITLE12=遠颺的夢舟
TTITLE13=問白雲
TTITLE14=明自千里寄相思
EXTD=
EXTT0=
EXTT1=
EXTT2=
EXTT3=
EXTT4=
EXTT5=
EXTT6=
EXTT7=
EXTT8=
EXTT9=
EXTT10=
EXTT11=
EXTT12=
EXTT13=
EXTT14=
PLAYORDER=
